<mxfile host="app.diagrams.net" modified="2023-06-10T15:30:42.104Z" agent="Mozilla/5.0 (Windows NT 10.0; Win64; x64) AppleWebKit/537.36 (KHTML, like Gecko) Chrome/114.0.0.0 Safari/537.36" etag="NrSAr_aLfFe-MnYcOusB" version="21.3.5" type="device">
  <diagram name="PÃ¡gina-1" id="5dtUnebFbV_o5ScnACAx">
    <mxGraphModel dx="794" dy="438" grid="1" gridSize="10" guides="1" tooltips="1" connect="1" arrows="1" fold="1" page="1" pageScale="1" pageWidth="827" pageHeight="1169" math="0" shadow="0">
      <root>
        <mxCell id="0" />
        <mxCell id="1" parent="0" />
        <mxCell id="4jXJYEMPRa_kS_Lo8OoQ-4" value="&lt;b&gt;&amp;lt;&amp;lt;IEventoRefri&amp;gt;&amp;gt;&lt;/b&gt;" style="swimlane;fontStyle=0;childLayout=stackLayout;horizontal=1;startSize=30;horizontalStack=0;resizeParent=1;resizeParentMax=0;resizeLast=0;collapsible=1;marginBottom=0;whiteSpace=wrap;html=1;" vertex="1" parent="1">
          <mxGeometry x="515" y="160" width="190" height="60" as="geometry" />
        </mxCell>
        <mxCell id="4jXJYEMPRa_kS_Lo8OoQ-5" value="&amp;nbsp;void EReservasBajas(int pKilos)" style="text;strokeColor=none;fillColor=none;align=left;verticalAlign=middle;spacingLeft=4;spacingRight=4;overflow=hidden;points=[[0,0.5],[1,0.5]];portConstraint=eastwest;rotatable=0;whiteSpace=wrap;html=1;" vertex="1" parent="4jXJYEMPRa_kS_Lo8OoQ-4">
          <mxGeometry y="30" width="190" height="30" as="geometry" />
        </mxCell>
        <mxCell id="4jXJYEMPRa_kS_Lo8OoQ-17" value="CRefriSink" style="swimlane;fontStyle=1;align=center;verticalAlign=top;childLayout=stackLayout;horizontal=1;startSize=26;horizontalStack=0;resizeParent=1;resizeParentMax=0;resizeLast=0;collapsible=1;marginBottom=0;whiteSpace=wrap;html=1;" vertex="1" parent="1">
          <mxGeometry x="530" y="280" width="160" height="86" as="geometry" />
        </mxCell>
        <mxCell id="4jXJYEMPRa_kS_Lo8OoQ-18" value="-" style="text;strokeColor=none;fillColor=none;align=left;verticalAlign=top;spacingLeft=4;spacingRight=4;overflow=hidden;rotatable=0;points=[[0,0.5],[1,0.5]];portConstraint=eastwest;whiteSpace=wrap;html=1;" vertex="1" parent="4jXJYEMPRa_kS_Lo8OoQ-17">
          <mxGeometry y="26" width="160" height="26" as="geometry" />
        </mxCell>
        <mxCell id="4jXJYEMPRa_kS_Lo8OoQ-19" value="" style="line;strokeWidth=1;fillColor=none;align=left;verticalAlign=middle;spacingTop=-1;spacingLeft=3;spacingRight=3;rotatable=0;labelPosition=right;points=[];portConstraint=eastwest;strokeColor=inherit;" vertex="1" parent="4jXJYEMPRa_kS_Lo8OoQ-17">
          <mxGeometry y="52" width="160" height="8" as="geometry" />
        </mxCell>
        <mxCell id="4jXJYEMPRa_kS_Lo8OoQ-20" value="&amp;lt;&amp;lt;interfaz&amp;gt;&amp;gt;" style="text;strokeColor=none;fillColor=none;align=left;verticalAlign=top;spacingLeft=4;spacingRight=4;overflow=hidden;rotatable=0;points=[[0,0.5],[1,0.5]];portConstraint=eastwest;whiteSpace=wrap;html=1;" vertex="1" parent="4jXJYEMPRa_kS_Lo8OoQ-17">
          <mxGeometry y="60" width="160" height="26" as="geometry" />
        </mxCell>
        <mxCell id="4jXJYEMPRa_kS_Lo8OoQ-21" value="" style="endArrow=classic;html=1;rounded=0;exitX=0.5;exitY=0;exitDx=0;exitDy=0;dashed=1;" edge="1" parent="1" source="4jXJYEMPRa_kS_Lo8OoQ-17" target="4jXJYEMPRa_kS_Lo8OoQ-4">
          <mxGeometry width="50" height="50" relative="1" as="geometry">
            <mxPoint x="380" y="250" as="sourcePoint" />
            <mxPoint x="430" y="200" as="targetPoint" />
          </mxGeometry>
        </mxCell>
        <mxCell id="4jXJYEMPRa_kS_Lo8OoQ-23" value="CRefri" style="swimlane;fontStyle=1;align=center;verticalAlign=top;childLayout=stackLayout;horizontal=1;startSize=26;horizontalStack=0;resizeParent=1;resizeParentMax=0;resizeLast=0;collapsible=1;marginBottom=0;whiteSpace=wrap;html=1;" vertex="1" parent="1">
          <mxGeometry x="330" y="300" width="160" height="190" as="geometry" />
        </mxCell>
        <mxCell id="4jXJYEMPRa_kS_Lo8OoQ-24" value="private grados (int)&lt;br&gt;" style="text;strokeColor=none;fillColor=none;align=left;verticalAlign=top;spacingLeft=4;spacingRight=4;overflow=hidden;rotatable=0;points=[[0,0.5],[1,0.5]];portConstraint=eastwest;whiteSpace=wrap;html=1;" vertex="1" parent="4jXJYEMPRa_kS_Lo8OoQ-23">
          <mxGeometry y="26" width="160" height="26" as="geometry" />
        </mxCell>
        <mxCell id="4jXJYEMPRa_kS_Lo8OoQ-27" value="private kilosAlimentos (int)" style="text;strokeColor=none;fillColor=none;align=left;verticalAlign=top;spacingLeft=4;spacingRight=4;overflow=hidden;rotatable=0;points=[[0,0.5],[1,0.5]];portConstraint=eastwest;whiteSpace=wrap;html=1;" vertex="1" parent="4jXJYEMPRa_kS_Lo8OoQ-23">
          <mxGeometry y="52" width="160" height="26" as="geometry" />
        </mxCell>
        <mxCell id="4jXJYEMPRa_kS_Lo8OoQ-28" value="private listaSink (ArrayList)" style="text;strokeColor=none;fillColor=none;align=left;verticalAlign=top;spacingLeft=4;spacingRight=4;overflow=hidden;rotatable=0;points=[[0,0.5],[1,0.5]];portConstraint=eastwest;whiteSpace=wrap;html=1;" vertex="1" parent="4jXJYEMPRa_kS_Lo8OoQ-23">
          <mxGeometry y="78" width="160" height="26" as="geometry" />
        </mxCell>
        <mxCell id="4jXJYEMPRa_kS_Lo8OoQ-25" value="" style="line;strokeWidth=1;fillColor=none;align=left;verticalAlign=middle;spacingTop=-1;spacingLeft=3;spacingRight=3;rotatable=0;labelPosition=right;points=[];portConstraint=eastwest;strokeColor=inherit;" vertex="1" parent="4jXJYEMPRa_kS_Lo8OoQ-23">
          <mxGeometry y="104" width="160" height="8" as="geometry" />
        </mxCell>
        <mxCell id="4jXJYEMPRa_kS_Lo8OoQ-26" value="AgregarSink()" style="text;strokeColor=none;fillColor=none;align=left;verticalAlign=top;spacingLeft=4;spacingRight=4;overflow=hidden;rotatable=0;points=[[0,0.5],[1,0.5]];portConstraint=eastwest;whiteSpace=wrap;html=1;" vertex="1" parent="4jXJYEMPRa_kS_Lo8OoQ-23">
          <mxGeometry y="112" width="160" height="26" as="geometry" />
        </mxCell>
        <mxCell id="4jXJYEMPRa_kS_Lo8OoQ-29" value="eliminarSink()" style="text;strokeColor=none;fillColor=none;align=left;verticalAlign=top;spacingLeft=4;spacingRight=4;overflow=hidden;rotatable=0;points=[[0,0.5],[1,0.5]];portConstraint=eastwest;whiteSpace=wrap;html=1;" vertex="1" parent="4jXJYEMPRa_kS_Lo8OoQ-23">
          <mxGeometry y="138" width="160" height="26" as="geometry" />
        </mxCell>
        <mxCell id="4jXJYEMPRa_kS_Lo8OoQ-30" value="Trabajar(int pConsumo)" style="text;strokeColor=none;fillColor=none;align=left;verticalAlign=top;spacingLeft=4;spacingRight=4;overflow=hidden;rotatable=0;points=[[0,0.5],[1,0.5]];portConstraint=eastwest;whiteSpace=wrap;html=1;" vertex="1" parent="4jXJYEMPRa_kS_Lo8OoQ-23">
          <mxGeometry y="164" width="160" height="26" as="geometry" />
        </mxCell>
        <mxCell id="4jXJYEMPRa_kS_Lo8OoQ-37" value="" style="endArrow=classic;html=1;rounded=0;" edge="1" parent="1" source="4jXJYEMPRa_kS_Lo8OoQ-45" target="4jXJYEMPRa_kS_Lo8OoQ-23">
          <mxGeometry width="50" height="50" relative="1" as="geometry">
            <mxPoint x="240" y="350" as="sourcePoint" />
            <mxPoint x="290" y="300" as="targetPoint" />
          </mxGeometry>
        </mxCell>
        <mxCell id="4jXJYEMPRa_kS_Lo8OoQ-38" value="" style="swimlane;startSize=0;" vertex="1" parent="1">
          <mxGeometry x="40" y="140" width="690" height="370" as="geometry" />
        </mxCell>
        <mxCell id="4jXJYEMPRa_kS_Lo8OoQ-44" value="creacion" style="text;html=1;strokeColor=none;fillColor=none;align=center;verticalAlign=middle;whiteSpace=wrap;rounded=0;" vertex="1" parent="4jXJYEMPRa_kS_Lo8OoQ-38">
          <mxGeometry x="190" y="150" width="60" height="30" as="geometry" />
        </mxCell>
        <mxCell id="4jXJYEMPRa_kS_Lo8OoQ-33" value="Program" style="swimlane;fontStyle=1;align=center;verticalAlign=top;childLayout=stackLayout;horizontal=1;startSize=26;horizontalStack=0;resizeParent=1;resizeParentMax=0;resizeLast=0;collapsible=1;marginBottom=0;whiteSpace=wrap;html=1;" vertex="1" parent="4jXJYEMPRa_kS_Lo8OoQ-38">
          <mxGeometry x="10" y="160" width="160" height="86" as="geometry" />
        </mxCell>
        <mxCell id="4jXJYEMPRa_kS_Lo8OoQ-34" value="-" style="text;strokeColor=none;fillColor=none;align=left;verticalAlign=top;spacingLeft=4;spacingRight=4;overflow=hidden;rotatable=0;points=[[0,0.5],[1,0.5]];portConstraint=eastwest;whiteSpace=wrap;html=1;" vertex="1" parent="4jXJYEMPRa_kS_Lo8OoQ-33">
          <mxGeometry y="26" width="160" height="26" as="geometry" />
        </mxCell>
        <mxCell id="4jXJYEMPRa_kS_Lo8OoQ-35" value="" style="line;strokeWidth=1;fillColor=none;align=left;verticalAlign=middle;spacingTop=-1;spacingLeft=3;spacingRight=3;rotatable=0;labelPosition=right;points=[];portConstraint=eastwest;strokeColor=inherit;" vertex="1" parent="4jXJYEMPRa_kS_Lo8OoQ-33">
          <mxGeometry y="52" width="160" height="8" as="geometry" />
        </mxCell>
        <mxCell id="4jXJYEMPRa_kS_Lo8OoQ-36" value="main()" style="text;strokeColor=none;fillColor=none;align=left;verticalAlign=top;spacingLeft=4;spacingRight=4;overflow=hidden;rotatable=0;points=[[0,0.5],[1,0.5]];portConstraint=eastwest;whiteSpace=wrap;html=1;" vertex="1" parent="4jXJYEMPRa_kS_Lo8OoQ-33">
          <mxGeometry y="60" width="160" height="26" as="geometry" />
        </mxCell>
        <mxCell id="4jXJYEMPRa_kS_Lo8OoQ-48" value="" style="endArrow=classic;html=1;rounded=0;" edge="1" parent="4jXJYEMPRa_kS_Lo8OoQ-38" source="4jXJYEMPRa_kS_Lo8OoQ-36" target="4jXJYEMPRa_kS_Lo8OoQ-44">
          <mxGeometry width="50" height="50" relative="1" as="geometry">
            <mxPoint x="170" y="215" as="sourcePoint" />
            <mxPoint x="450" y="148" as="targetPoint" />
            <Array as="points">
              <mxPoint x="220" y="210" />
            </Array>
          </mxGeometry>
        </mxCell>
        <mxCell id="4jXJYEMPRa_kS_Lo8OoQ-50" value="listar" style="text;html=1;strokeColor=none;fillColor=none;align=center;verticalAlign=middle;whiteSpace=wrap;rounded=0;" vertex="1" parent="4jXJYEMPRa_kS_Lo8OoQ-38">
          <mxGeometry x="510" y="280" width="60" height="30" as="geometry" />
        </mxCell>
        <mxCell id="4jXJYEMPRa_kS_Lo8OoQ-39" value="&lt;b&gt;namespace: cap_07_Interfaz_callBack&lt;/b&gt;" style="text;strokeColor=none;fillColor=none;align=left;verticalAlign=middle;spacingLeft=4;spacingRight=4;overflow=hidden;points=[[0,0.5],[1,0.5]];portConstraint=eastwest;rotatable=0;whiteSpace=wrap;html=1;" vertex="1" parent="1">
          <mxGeometry x="80" y="120" width="330" height="30" as="geometry" />
        </mxCell>
        <mxCell id="4jXJYEMPRa_kS_Lo8OoQ-40" value="" style="swimlane;startSize=0;" vertex="1" parent="1">
          <mxGeometry x="40" y="540" width="340" height="120" as="geometry" />
        </mxCell>
        <mxCell id="4jXJYEMPRa_kS_Lo8OoQ-41" value="&lt;h1 style=&quot;line-height: 0%;&quot;&gt;&lt;font style=&quot;font-size: 17px;&quot;&gt;Main&lt;/font&gt;&lt;/h1&gt;&lt;p&gt;&lt;/p&gt;&lt;ul&gt;&lt;li&gt;crea CRefri &lt;b&gt;miRefri&lt;/b&gt;&lt;/li&gt;&lt;li&gt;crea random &lt;font style=&quot;font-weight: bold;&quot; color=&quot;#ff0000&quot;&gt;rnd &lt;/font&gt;(system)&lt;/li&gt;&lt;li&gt;crea CrefriSink &lt;b&gt;&lt;font color=&quot;#0000ff&quot;&gt;miSink1&lt;/font&gt;&lt;/b&gt;&lt;/li&gt;&lt;li&gt;&lt;b&gt;miRefri&lt;/b&gt;.AgregarSink(&lt;b&gt;&lt;font color=&quot;#0000ff&quot;&gt;miSink1&lt;/font&gt;&lt;/b&gt;)&lt;/li&gt;&lt;li&gt;while (kilos&amp;gt;0) &lt;b&gt;miRefri&lt;/b&gt;.Trabajar (&lt;b&gt;&lt;font color=&quot;#ff0000&quot;&gt;rnd&lt;/font&gt;&lt;/b&gt;.Next)&lt;/li&gt;&lt;/ul&gt;&lt;p&gt;&lt;/p&gt;" style="text;html=1;strokeColor=none;fillColor=none;spacing=5;spacingTop=-20;whiteSpace=wrap;overflow=hidden;rounded=0;" vertex="1" parent="4jXJYEMPRa_kS_Lo8OoQ-40">
          <mxGeometry x="5" y="20" width="325" height="100" as="geometry" />
        </mxCell>
        <mxCell id="4jXJYEMPRa_kS_Lo8OoQ-43" value="" style="endArrow=classic;html=1;rounded=0;" edge="1" parent="1" source="4jXJYEMPRa_kS_Lo8OoQ-44" target="4jXJYEMPRa_kS_Lo8OoQ-17">
          <mxGeometry width="50" height="50" relative="1" as="geometry">
            <mxPoint x="340" y="350" as="sourcePoint" />
            <mxPoint x="390" y="300" as="targetPoint" />
            <Array as="points">
              <mxPoint x="300" y="280" />
              <mxPoint x="470" y="280" />
            </Array>
          </mxGeometry>
        </mxCell>
        <mxCell id="4jXJYEMPRa_kS_Lo8OoQ-46" value="" style="endArrow=classic;html=1;rounded=0;" edge="1" parent="1" source="4jXJYEMPRa_kS_Lo8OoQ-36" target="4jXJYEMPRa_kS_Lo8OoQ-45">
          <mxGeometry width="50" height="50" relative="1" as="geometry">
            <mxPoint x="250" y="380" as="sourcePoint" />
            <mxPoint x="330" y="388" as="targetPoint" />
          </mxGeometry>
        </mxCell>
        <mxCell id="4jXJYEMPRa_kS_Lo8OoQ-45" value="creacion" style="text;html=1;strokeColor=none;fillColor=none;align=center;verticalAlign=middle;whiteSpace=wrap;rounded=0;" vertex="1" parent="1">
          <mxGeometry x="260" y="366" width="60" height="30" as="geometry" />
        </mxCell>
        <mxCell id="4jXJYEMPRa_kS_Lo8OoQ-51" value="" style="endArrow=classic;html=1;rounded=0;exitX=1.013;exitY=0.846;exitDx=0;exitDy=0;exitPerimeter=0;dashed=1;dashPattern=12 12;" edge="1" parent="1" source="4jXJYEMPRa_kS_Lo8OoQ-28" target="4jXJYEMPRa_kS_Lo8OoQ-50">
          <mxGeometry width="50" height="50" relative="1" as="geometry">
            <mxPoint x="492" y="400" as="sourcePoint" />
            <mxPoint x="610" y="366" as="targetPoint" />
            <Array as="points" />
          </mxGeometry>
        </mxCell>
        <mxCell id="4jXJYEMPRa_kS_Lo8OoQ-52" value="" style="endArrow=classic;startArrow=none;html=1;rounded=0;entryX=0.767;entryY=1.154;entryDx=0;entryDy=0;entryPerimeter=0;startFill=0;dashed=1;dashPattern=8 8;" edge="1" parent="1" source="4jXJYEMPRa_kS_Lo8OoQ-50" target="4jXJYEMPRa_kS_Lo8OoQ-20">
          <mxGeometry width="50" height="50" relative="1" as="geometry">
            <mxPoint x="340" y="350" as="sourcePoint" />
            <mxPoint x="690" y="570.6666259765625" as="targetPoint" />
            <Array as="points">
              <mxPoint x="653" y="435" />
            </Array>
          </mxGeometry>
        </mxCell>
        <mxCell id="4jXJYEMPRa_kS_Lo8OoQ-55" value="" style="swimlane;startSize=0;" vertex="1" parent="1">
          <mxGeometry x="390" y="540" width="370" height="120" as="geometry" />
        </mxCell>
        <mxCell id="4jXJYEMPRa_kS_Lo8OoQ-56" value="&lt;h1 style=&quot;line-height: 0%;&quot;&gt;&lt;span style=&quot;font-size: 17px;&quot;&gt;CRefri.Trabajar(pConsumo)&lt;/span&gt;&lt;/h1&gt;&lt;p&gt;&lt;/p&gt;&lt;ul&gt;&lt;li&gt;&lt;font color=&quot;#009900&quot;&gt;&lt;b&gt;kilosAlimentos &lt;/b&gt;&lt;/font&gt;-= pconsumo&lt;/li&gt;&lt;li&gt;grados += 1&lt;/li&gt;&lt;li&gt;informe por consola&lt;/li&gt;&lt;li&gt;&lt;b&gt;&lt;font color=&quot;#009900&quot;&gt;kilosAlimetos &lt;/font&gt;&lt;/b&gt;&amp;lt; 10 ? foreach(IEventoRefri &lt;b&gt;&lt;font color=&quot;#ff0000&quot;&gt;h &lt;/font&gt;&lt;/b&gt;in listaSink){&lt;b&gt;&lt;font color=&quot;#ff0000&quot;&gt;h&lt;/font&gt;&lt;/b&gt;.EReservasBajas(&lt;b&gt;&lt;font color=&quot;#009900&quot;&gt;kilosAlimentos&lt;/font&gt;&lt;/b&gt;)}&lt;/li&gt;&lt;/ul&gt;&lt;p&gt;&lt;/p&gt;" style="text;html=1;strokeColor=none;fillColor=none;spacing=5;spacingTop=-20;whiteSpace=wrap;overflow=hidden;rounded=0;" vertex="1" parent="4jXJYEMPRa_kS_Lo8OoQ-55">
          <mxGeometry x="5" y="20" width="365" height="100" as="geometry" />
        </mxCell>
      </root>
    </mxGraphModel>
  </diagram>
</mxfile>
